<?xml version="1.0" encoding="utf-8"?>
<!-- Generator: Adobe Illustrator 22.1.0, SVG Export Plug-In . SVG Version: 6.00 Build 0)  -->
<svg version="1.1" id="Layer_1" xmlns="http://www.w3.org/2000/svg" xmlns:xlink="http://www.w3.org/1999/xlink" x="0px" y="0px"
	 viewBox="0 0 240 80" style="enable-background:new 0 0 240 80;" xml:space="preserve">
<style type="text/css">
	.st0{fill:url(#SVGID_1_);}
	.st1{fill:url(#SVGID_2_);}
	.st2{fill:url(#SVGID_3_);}
	.st3{fill:url(#SVGID_4_);}
	.st4{fill:url(#SVGID_5_);}
	.st5{fill:url(#SVGID_6_);}
	.st6{fill:url(#SVGID_7_);}
	.st7{fill:url(#SVGID_8_);}
	.st8{fill:url(#SVGID_9_);}
</style>
<g>
	<linearGradient id="SVGID_1_" gradientUnits="userSpaceOnUse" x1="24.8208" y1="36.4539" x2="66.1604" y2="39.2284">
		<stop  offset="0" style="stop-color:#009966"/>
		<stop  offset="1" style="stop-color:#006699"/>
	</linearGradient>
	<path class="st0" d="M86.1,32.9c2.7,0,4.5,1.2,5.3,3.5h5c-0.6-2.4-1.8-4.2-3.6-5.5c-1.8-1.3-4-1.9-6.7-1.9c-3.2,0-5.9,1.1-7.9,3.2
		c-2,2.1-3.1,4.9-3.1,8.4c0,3.5,1,6.3,3.1,8.4c2,2.1,4.7,3.2,7.9,3.2c2.7,0,4.9-0.7,6.7-2c1.8-1.3,3-3.2,3.7-5.4h-5
		c-0.9,2.4-2.6,3.5-5.3,3.5c-1.9,0-3.4-0.7-4.5-2c-1.1-1.4-1.7-3.2-1.7-5.7c0-2.4,0.6-4.3,1.7-5.6C82.6,33.6,84.2,32.9,86.1,32.9z"
		/>
	<linearGradient id="SVGID_2_" gradientUnits="userSpaceOnUse" x1="24.9319" y1="34.7988" x2="66.2715" y2="37.5733">
		<stop  offset="0" style="stop-color:#009966"/>
		<stop  offset="1" style="stop-color:#006699"/>
	</linearGradient>
	<path class="st1" d="M111,29c-3.3,0-6,1.1-8.2,3.2c-2.2,2.1-3.3,4.9-3.3,8.4c0,3.5,1.1,6.3,3.2,8.4c2.1,2.1,4.8,3.2,8.1,3.2
		c3.3,0,6-1.1,8.3-3.2c2.2-2.1,3.4-4.9,3.4-8.4c0-3.4-1.1-6.2-3.3-8.4C116.9,30.1,114.2,29,111,29z M115.6,46.2c-1.4,1.4-3,2-4.8,2
		c-1.9,0-3.4-0.7-4.7-2c-1.2-1.3-1.9-3.2-1.9-5.7c0-2.4,0.6-4.3,1.9-5.7c1.3-1.3,2.8-2,4.7-2c1.9,0,3.5,0.7,4.8,2
		c1.3,1.3,2,3.2,2,5.6C117.6,43,116.9,44.8,115.6,46.2z"/>
	<linearGradient id="SVGID_3_" gradientUnits="userSpaceOnUse" x1="25.079" y1="32.6064" x2="66.4186" y2="35.3809">
		<stop  offset="0" style="stop-color:#009966"/>
		<stop  offset="1" style="stop-color:#006699"/>
	</linearGradient>
	<path class="st2" d="M154.5,29c-1.8,0-3.3,0.4-4.7,1.3c-1.4,0.8-2.5,2-3.3,3.5c-0.7-1.5-1.7-2.7-3.1-3.5c-1.4-0.8-2.9-1.2-4.6-1.2
		c-3.3,0-5.7,1.3-7.2,3.9v-3.5H127v22.4h4.6V39.2c0-2,0.5-3.5,1.5-4.6c1-1.1,2.4-1.6,4.1-1.6c1.7,0,3.1,0.5,4.1,1.6
		c1,1.1,1.5,2.6,1.5,4.6v12.5h4.6V39.2c0-2,0.5-3.5,1.5-4.6c1-1.1,2.4-1.6,4.1-1.6s3.1,0.5,4.1,1.6c1,1.1,1.5,2.6,1.5,4.6v12.5h4.6
		V38.6c0-3-0.8-5.4-2.5-7.1C159.2,29.8,157.1,29,154.5,29z"/>
	<linearGradient id="SVGID_4_" gradientUnits="userSpaceOnUse" x1="24.8787" y1="35.5907" x2="66.2183" y2="38.3651">
		<stop  offset="0" style="stop-color:#009966"/>
		<stop  offset="1" style="stop-color:#006699"/>
	</linearGradient>
	<path class="st3" d="M181.7,29c-1.8,0-3.3,0.4-4.7,1.2c-1.3,0.8-2.4,1.9-3.2,3.2v-4h-4.6v33.1h4.6V47.6c0.8,1.4,1.8,2.5,3.2,3.3
		c1.3,0.8,2.9,1.2,4.6,1.2c3,0,5.5-1.1,7.5-3.3c2-2.2,3-5,3-8.4c0-3.4-1-6.2-3-8.3C187.2,30.1,184.7,29,181.7,29z M185.5,46
		c-1.4,1.4-3,2.1-4.8,2.1c-1.8,0-3.4-0.7-4.8-2.1c-1.3-1.4-2-3.2-2-5.5c0-2.3,0.7-4.1,2-5.5c1.3-1.4,2.9-2,4.8-2
		c1.9,0,3.5,0.7,4.8,2c1.3,1.3,2,3.1,2,5.5C187.5,42.8,186.8,44.6,185.5,46z"/>
	<linearGradient id="SVGID_5_" gradientUnits="userSpaceOnUse" x1="25.3551" y1="28.4934" x2="66.6947" y2="31.2679">
		<stop  offset="0" style="stop-color:#009966"/>
		<stop  offset="1" style="stop-color:#006699"/>
	</linearGradient>
	<path class="st4" d="M201.5,33.3v-3.9h-4.6v22.4h4.6V40c0-2.3,0.5-3.9,1.4-4.8c0.9-0.9,2.3-1.4,4.1-1.4h1.2V29
		C205.1,29,202.9,30.4,201.5,33.3z"/>
	<linearGradient id="SVGID_6_" gradientUnits="userSpaceOnUse" x1="25.4315" y1="27.3544" x2="66.7711" y2="30.1288">
		<stop  offset="0" style="stop-color:#009966"/>
		<stop  offset="1" style="stop-color:#006699"/>
	</linearGradient>
	<path class="st5" d="M230.5,32.2c-2.2-2.1-4.9-3.2-8.2-3.2c-3.3,0-6,1.1-8.2,3.2c-2.2,2.1-3.3,4.9-3.3,8.4c0,3.5,1.1,6.3,3.2,8.4
		c2.1,2.1,4.8,3.2,8.1,3.2c3.3,0,6-1.1,8.3-3.2c2.2-2.1,3.4-4.9,3.4-8.4C233.8,37.1,232.7,34.3,230.5,32.2z M227,46.2
		c-1.4,1.4-3,2-4.8,2c-1.9,0-3.4-0.7-4.7-2s-1.9-3.2-1.9-5.7c0-2.4,0.6-4.3,1.9-5.7c1.3-1.3,2.8-2,4.7-2c1.9,0,3.5,0.7,4.8,2
		c1.3,1.3,2,3.2,2,5.6C229,43,228.4,44.8,227,46.2z"/>
	<linearGradient id="SVGID_7_" gradientUnits="userSpaceOnUse" x1="25.518" y1="40.5524" x2="66.8576" y2="43.3268">
		<stop  offset="0" style="stop-color:#009966"/>
		<stop  offset="1" style="stop-color:#006699"/>
	</linearGradient>
	<path class="st6" d="M41.7,39.9c1-1.6,1.5-3.3,1.5-5c0-2.5-0.9-4.6-2.8-6.3c-1.9-1.8-4.5-2.6-7.9-2.6H20.9v29.3H28V43.9h0.8
		l6.6,11.4h8.3l-7.2-11.9C39,42.7,40.6,41.6,41.7,39.9z M35,37.5c-0.6,0.6-1.5,1-2.6,1H28v-7.1h4.4c1.1,0,1.9,0.3,2.5,1
		c0.6,0.7,1,1.5,1,2.6C36,36,35.6,36.9,35,37.5z"/>
	<linearGradient id="SVGID_8_" gradientUnits="userSpaceOnUse" x1="25.6317" y1="38.8585" x2="66.9713" y2="41.633">
		<stop  offset="0" style="stop-color:#009966"/>
		<stop  offset="1" style="stop-color:#006699"/>
	</linearGradient>
	<rect x="48.8" y="26" class="st7" width="7.1" height="29.3"/>
	<linearGradient id="SVGID_9_" gradientUnits="userSpaceOnUse" x1="25.6137" y1="39.1267" x2="66.9533" y2="41.9011">
		<stop  offset="0" style="stop-color:#009966"/>
		<stop  offset="1" style="stop-color:#006699"/>
	</linearGradient>
	<path class="st8" d="M39.7,4.9L35,13c0.8-0.1,1.6-0.1,2.4-0.1c14.9,0,27.1,12.1,27.1,27.1C64.5,54.9,52.4,67,37.4,67
		c-14.9,0-27.1-12.1-27.1-27.1c0-9.6,5-18.1,12.6-22.9l3.1,5.4L36.2,5H16l2.9,5.1C9,16.3,2.3,27.3,2.3,39.9C2.3,59.3,18,75,37.4,75
		c19.4,0,35.1-15.7,35.1-35.1C72.5,21.3,58,6.1,39.7,4.9z"/>
</g>
<g>
</g>
<g>
</g>
<g>
</g>
<g>
</g>
<g>
</g>
<g>
</g>
<g>
</g>
<g>
</g>
<g>
</g>
<g>
</g>
<g>
</g>
<g>
</g>
<g>
</g>
<g>
</g>
<g>
</g>
</svg>
